<svg width="236" height="52" viewBox="0 0 236 52" fill="none" xmlns="http://www.w3.org/2000/svg">
<path d="M10.8584 35.0235L9.90976 35.9722C9.78327 36.0987 9.63781 36.1619 9.47337 36.1619C9.30894 36.1619 9.16348 36.0987 9.03699 35.9722L0.195469 27.1307C0.0689814 27.0042 0.0057373 26.8587 0.0057373 26.6943C0.0057373 26.5299 0.0689814 26.3844 0.195469 26.2579L9.03699 17.4164C9.16348 17.2899 9.30894 17.2267 9.47337 17.2267C9.63781 17.2267 9.78327 17.2899 9.90976 17.4164L10.8584 18.365C10.9849 18.4915 11.0481 18.637 11.0481 18.8014C11.0481 18.9659 10.9849 19.1113 10.8584 19.2378L3.40194 26.6943L10.8584 34.1508C10.9849 34.2772 11.0481 34.4227 11.0481 34.5871C11.0481 34.7516 10.9849 34.897 10.8584 35.0235ZM22.0716 14.7791L14.9946 39.2735C14.944 39.438 14.846 39.5613 14.7005 39.6435C14.555 39.7257 14.4064 39.7415 14.2546 39.6909L13.0783 39.3684C12.9138 39.3178 12.7905 39.2198 12.7083 39.0743C12.6261 38.9288 12.6103 38.7739 12.6609 38.6095L19.7379 14.115C19.7885 13.9506 19.8865 13.8273 20.032 13.7451C20.1774 13.6628 20.326 13.647 20.4778 13.6976L21.6542 14.0202C21.8186 14.0708 21.9419 14.1688 22.0242 14.3143C22.1064 14.4597 22.1222 14.6147 22.0716 14.7791ZM34.537 27.1307L25.6955 35.9722C25.569 36.0987 25.4235 36.1619 25.2591 36.1619C25.0947 36.1619 24.9492 36.0987 24.8227 35.9722L23.874 35.0235C23.7476 34.897 23.6843 34.7516 23.6843 34.5871C23.6843 34.4227 23.7476 34.2772 23.874 34.1508L31.3305 26.6943L23.874 19.2378C23.7476 19.1113 23.6843 18.9659 23.6843 18.8014C23.6843 18.637 23.7476 18.4915 23.874 18.365L24.8227 17.4164C24.9492 17.2899 25.0947 17.2267 25.2591 17.2267C25.4235 17.2267 25.569 17.2899 25.6955 17.4164L34.537 26.2579C34.6635 26.3844 34.7267 26.5299 34.7267 26.6943C34.7267 26.8587 34.6635 27.0042 34.537 27.1307Z" fill="#7D11F9"/>
<path d="M57.8533 32.108L65.6733 13.68H68.9033L57.8533 38.67L46.8033 13.68H50.0333L57.8533 32.108Z" fill="#7D11F9"/>
<path d="M81.788 13.68H87.704V37.48H81.788V13.68ZM90.288 37.48H85.596V32.38H90.084C90.9906 32.38 91.8633 32.2667 92.702 32.04C93.5633 31.8133 94.3113 31.4393 94.946 30.918C95.6033 30.3967 96.1246 29.7053 96.51 28.844C96.8953 27.96 97.088 26.872 97.088 25.58C97.088 24.288 96.8953 23.2113 96.51 22.35C96.1246 21.466 95.6033 20.7633 94.946 20.242C94.3113 19.7207 93.5633 19.3467 92.702 19.12C91.8633 18.8933 90.9906 18.78 90.084 18.78H85.596V13.68H90.288C92.8946 13.68 95.15 14.1673 97.054 15.142C98.958 16.1167 100.431 17.488 101.474 19.256C102.517 21.024 103.038 23.132 103.038 25.58C103.038 28.0053 102.517 30.1133 101.474 31.904C100.431 33.672 98.958 35.0433 97.054 36.018C95.15 36.9927 92.8946 37.48 90.288 37.48ZM114.17 37.82C112.356 37.82 110.781 37.4913 109.444 36.834C108.129 36.154 107.109 35.202 106.384 33.978C105.658 32.754 105.296 31.3147 105.296 29.66C105.296 27.9827 105.647 26.532 106.35 25.308C107.052 24.084 108.061 23.1433 109.376 22.486C110.713 21.8287 112.288 21.5 114.102 21.5C115.915 21.5 117.445 21.8173 118.692 22.452C119.938 23.064 120.89 23.9593 121.548 25.138C122.205 26.3167 122.534 27.7447 122.534 29.422C122.534 29.6713 122.534 29.9207 122.534 30.17C122.534 30.3967 122.511 30.5893 122.466 30.748H108.186V27.892H117.842L116.618 29.456C116.731 29.2973 116.822 29.1047 116.89 28.878C116.98 28.6287 117.026 28.4247 117.026 28.266C117.026 27.586 116.901 26.9967 116.652 26.498C116.402 25.9993 116.051 25.614 115.598 25.342C115.144 25.07 114.612 24.934 114 24.934C113.229 24.934 112.583 25.104 112.062 25.444C111.54 25.784 111.144 26.3053 110.872 27.008C110.622 27.688 110.486 28.5493 110.464 29.592C110.464 30.544 110.6 31.36 110.872 32.04C111.144 32.72 111.552 33.2413 112.096 33.604C112.64 33.944 113.308 34.114 114.102 34.114C115.008 34.114 115.779 33.944 116.414 33.604C117.071 33.264 117.592 32.754 117.978 32.074L122.568 33.196C121.752 34.7373 120.641 35.8933 119.236 36.664C117.853 37.4347 116.164 37.82 114.17 37.82ZM123.098 21.84H128.572L132.176 30.51L135.746 21.84H141.22L132.176 39.316L123.098 21.84ZM143.645 13.68H149.561V37.48H143.645V13.68ZM152.145 37.48H147.453V32.38H151.941C152.848 32.38 153.721 32.2667 154.559 32.04C155.421 31.8133 156.169 31.4393 156.803 30.918C157.461 30.3967 157.982 29.7053 158.367 28.844C158.753 27.96 158.945 26.872 158.945 25.58C158.945 24.288 158.753 23.2113 158.367 22.35C157.982 21.466 157.461 20.7633 156.803 20.242C156.169 19.7207 155.421 19.3467 154.559 19.12C153.721 18.8933 152.848 18.78 151.941 18.78H147.453V13.68H152.145C154.752 13.68 157.007 14.1673 158.911 15.142C160.815 16.1167 162.289 17.488 163.331 19.256C164.374 21.024 164.895 23.132 164.895 25.58C164.895 28.0053 164.374 30.1133 163.331 31.904C162.289 33.672 160.815 35.0433 158.911 36.018C157.007 36.9927 154.752 37.48 152.145 37.48ZM167.765 15.958C167.765 15.142 168.06 14.4847 168.649 13.986C169.238 13.4647 169.941 13.204 170.757 13.204C171.596 13.204 172.298 13.4647 172.865 13.986C173.454 14.4847 173.749 15.142 173.749 15.958C173.749 16.774 173.454 17.4427 172.865 17.964C172.298 18.4853 171.596 18.746 170.757 18.746C169.941 18.746 169.238 18.4853 168.649 17.964C168.06 17.4427 167.765 16.774 167.765 15.958ZM168.275 21.84H173.239V37.48H168.275V21.84ZM176.549 29.66C176.549 28.0053 176.935 26.566 177.705 25.342C178.476 24.118 179.541 23.166 180.901 22.486C182.261 21.806 183.791 21.466 185.491 21.466C187.191 21.466 188.71 21.806 190.047 22.486C191.407 23.166 192.473 24.118 193.243 25.342C194.037 26.566 194.433 28.0053 194.433 29.66C194.433 31.292 194.037 32.72 193.243 33.944C192.473 35.168 191.407 36.12 190.047 36.8C188.71 37.48 187.191 37.82 185.491 37.82C183.791 37.82 182.261 37.48 180.901 36.8C179.541 36.12 178.476 35.168 177.705 33.944C176.935 32.72 176.549 31.292 176.549 29.66ZM181.819 29.66C181.819 30.476 181.989 31.1787 182.329 31.768C182.669 32.3347 183.111 32.7767 183.655 33.094C184.199 33.4113 184.811 33.57 185.491 33.57C186.149 33.57 186.749 33.4113 187.293 33.094C187.86 32.7767 188.302 32.3347 188.619 31.768C188.959 31.1787 189.129 30.476 189.129 29.66C189.129 28.844 188.959 28.1413 188.619 27.552C188.302 26.9627 187.86 26.5093 187.293 26.192C186.749 25.8747 186.149 25.716 185.491 25.716C184.811 25.716 184.199 25.8747 183.655 26.192C183.111 26.5093 182.669 26.9627 182.329 27.552C181.989 28.1413 181.819 28.844 181.819 29.66ZM196.944 38.602H201.908C201.976 39.2367 202.157 39.7693 202.452 40.2C202.769 40.6307 203.189 40.948 203.71 41.152C204.231 41.3787 204.821 41.492 205.478 41.492C206.203 41.492 206.861 41.322 207.45 40.982C208.039 40.6647 208.504 40.1773 208.844 39.52C209.207 38.8853 209.388 38.092 209.388 37.14V21.84H214.318V37.14C214.318 39.1347 213.921 40.7553 213.128 42.002C212.357 43.2487 211.326 44.1553 210.034 44.722C208.742 45.3113 207.291 45.606 205.682 45.606C203.755 45.606 202.157 45.3113 200.888 44.722C199.641 44.1327 198.701 43.3053 198.066 42.24C197.431 41.1973 197.057 39.9847 196.944 38.602ZM196.604 29.456C196.604 27.688 196.955 26.2147 197.658 25.036C198.383 23.8573 199.313 22.9733 200.446 22.384C201.579 21.7947 202.781 21.5 204.05 21.5C205.365 21.5 206.521 21.8173 207.518 22.452C208.538 23.064 209.343 23.9593 209.932 25.138C210.521 26.3167 210.816 27.756 210.816 29.456C210.816 31.1333 210.521 32.5727 209.932 33.774C209.343 34.9527 208.538 35.8593 207.518 36.494C206.521 37.106 205.365 37.412 204.05 37.412C202.781 37.412 201.579 37.1173 200.446 36.528C199.313 35.916 198.383 35.0207 197.658 33.842C196.955 32.6633 196.604 31.2013 196.604 29.456ZM202.01 29.456C202.01 30.2493 202.18 30.9407 202.52 31.53C202.86 32.0967 203.313 32.5273 203.88 32.822C204.447 33.1167 205.07 33.264 205.75 33.264C206.339 33.264 206.906 33.128 207.45 32.856C208.017 32.5613 208.481 32.1307 208.844 31.564C209.207 30.9973 209.388 30.2947 209.388 29.456C209.388 28.8213 209.275 28.266 209.048 27.79C208.844 27.314 208.561 26.9173 208.198 26.6C207.858 26.2827 207.473 26.0447 207.042 25.886C206.611 25.7273 206.181 25.648 205.75 25.648C205.07 25.648 204.447 25.7953 203.88 26.09C203.313 26.3847 202.86 26.8153 202.52 27.382C202.18 27.9487 202.01 28.64 202.01 29.456ZM217.356 29.66C217.356 28.0053 217.741 26.566 218.512 25.342C219.283 24.118 220.348 23.166 221.708 22.486C223.068 21.806 224.598 21.466 226.298 21.466C227.998 21.466 229.517 21.806 230.854 22.486C232.214 23.166 233.279 24.118 234.05 25.342C234.843 26.566 235.24 28.0053 235.24 29.66C235.24 31.292 234.843 32.72 234.05 33.944C233.279 35.168 232.214 36.12 230.854 36.8C229.517 37.48 227.998 37.82 226.298 37.82C224.598 37.82 223.068 37.48 221.708 36.8C220.348 36.12 219.283 35.168 218.512 33.944C217.741 32.72 217.356 31.292 217.356 29.66ZM222.626 29.66C222.626 30.476 222.796 31.1787 223.136 31.768C223.476 32.3347 223.918 32.7767 224.462 33.094C225.006 33.4113 225.618 33.57 226.298 33.57C226.955 33.57 227.556 33.4113 228.1 33.094C228.667 32.7767 229.109 32.3347 229.426 31.768C229.766 31.1787 229.936 30.476 229.936 29.66C229.936 28.844 229.766 28.1413 229.426 27.552C229.109 26.9627 228.667 26.5093 228.1 26.192C227.556 25.8747 226.955 25.716 226.298 25.716C225.618 25.716 225.006 25.8747 224.462 26.192C223.918 26.5093 223.476 26.9627 223.136 27.552C222.796 28.1413 222.626 28.844 222.626 29.66Z" fill="#3F3A64"/>
</svg>
